<svg xmlns="http://www.w3.org/2000/svg" width="27.8" height="17.62"><path d="M27.621.883c-1.225-2.12-8.363-.292-15.939 4.086S-1.045 14.616.182 16.737c1.053 1.822 6.473.725 12.787-2.4.282-.154.262-.488-.106-.368-3.892 1.434-7.136 1.523-7.978 0-1.116-2.018 2.42-6.11 7.9-9.135S23.608.992 24.724 3.012c.51.925.044 2.283-1.137 3.775a.1.1 0 01-.016.023c-.437.541-.117.7.194.442 3.022-2.677 4.6-5.1 3.859-6.371" fill="#ef474a"/><path d="M15.683 14.445a5.648 5.648 0 01-1.889-.847l.878-1.98a6.518 6.518 0 001.644.752 6.037 6.037 0 001.748.262 3.071 3.071 0 001.368-.246.76.76 0 00.475-.691.767.767 0 00-.43-.665 5.955 5.955 0 00-1.622-.511 8.883 8.883 0 01-2.335-.737 2.756 2.756 0 01-1.168-1.033 2.9 2.9 0 01-.334-1.444 2.961 2.961 0 01.551-1.749 3.644 3.644 0 011.547-1.219 5.582 5.582 0 012.276-.438 7.722 7.722 0 012.222.32 4.584 4.584 0 011.689.839l-.863 1.978a5.83 5.83 0 00-1.472-.752 4.862 4.862 0 00-1.547-.261 2.272 2.272 0 00-1.219.291.882.882 0 00-.461.781.636.636 0 00.162.446 1.649 1.649 0 00.61.349 9.962 9.962 0 001.338.365 9.114 9.114 0 012.271.751 2.848 2.848 0 011.166 1.027 2.749 2.749 0 01.344 1.406 2.853 2.853 0 01-1.206 2.432 5.646 5.646 0 01-3.39.886 9.047 9.047 0 01-2.352-.313" fill="#fff"/></svg>